<svg width="64" height="64" viewBox="0 0 64 64" fill="none" xmlns="http://www.w3.org/2000/svg">
<path d="M20.0054 0H26.88V2.87467H22.88V5.74933H26.88V8.624H20.0054V0ZM28.2534 0H35.1307V2.50133H31.1307V3H35.1307V8.74933H28.2534V6.12533H32.2534V5.624H28.2534V0ZM36.5067 0H43.3787V2.50133H39.3787V3H43.3787V8.74933H36.5067V6.12533H40.5067V5.624H36.5067V0Z" fill="#94535C"/>
<path fill-rule="evenodd" clip-rule="evenodd" d="M31.976 64L13.4587 58.8587L8 12.5787H56L50.544 58.8533L31.976 64ZM18.792 33.528L19.3013 39.2027H38.9733L38.3147 46.5627L31.984 48.2747H31.9787L25.6587 46.568L25.2533 42.0427H19.5547L20.3493 50.9547L31.976 54.1813L43.6213 50.9547L45.04 35.0507L45.1787 33.528L46.2027 22.0373H17.7707L18.288 27.7147H39.984L39.4667 33.528H18.792Z" fill="#94535C"/>
</svg>
