<svg width="64" height="64" viewBox="0 0 64 64" fill="none" xmlns="http://www.w3.org/2000/svg">
<path d="M58.1599 27.3333C57.9999 27.2267 56.6666 26.1867 53.7866 26.1867C53.0399 26.1867 52.2932 26.2667 51.5466 26.4C50.9866 22.6667 47.8666 20.7733 47.7332 20.6933L46.9599 20.24L46.4799 20.96C45.8399 21.92 45.3332 23.0133 45.1199 24.1333C44.5866 26.2667 44.9066 28.2933 45.9999 30.0267C44.6932 30.7733 42.5599 30.96 42.1066 30.96H6.98658C6.07992 30.96 5.33325 31.7067 5.33325 32.64C5.33325 35.7067 5.81325 38.7733 6.87992 41.6533C8.07992 44.8267 9.89325 47.1733 12.2133 48.6133C14.8266 50.2133 19.1199 51.12 23.9999 51.12C26.1066 51.12 28.2933 50.9333 30.4533 50.5333C33.4399 50 36.3199 48.96 38.9599 47.44C41.1463 46.1897 43.1033 44.5754 44.7466 42.6667C47.5466 39.5467 49.1999 36 50.3999 32.9333H50.9066C53.9466 32.9333 55.8399 31.7067 56.8799 30.6667C57.5732 30.0267 58.0799 29.2533 58.4533 28.3467L58.6666 27.7067L58.1599 27.3333ZM10.2666 29.9733H14.9599C15.1733 29.9733 15.3866 29.7867 15.3866 29.5467V25.3333C15.3866 25.12 15.1999 24.9067 14.9599 24.9067H10.2666C10.0266 24.9067 9.83992 25.0933 9.83992 25.3333V29.5467C9.86659 29.7867 10.0266 29.9733 10.2666 29.9733ZM16.7466 29.9733H21.4399C21.6533 29.9733 21.8666 29.7867 21.8666 29.5467V25.3333C21.8666 25.12 21.6799 24.9067 21.4399 24.9067H16.7466C16.5066 24.9067 16.3199 25.0933 16.3199 25.3333V29.5467C16.3466 29.7867 16.5066 29.9733 16.7466 29.9733ZM23.3333 29.9733H27.9999C28.2666 29.9733 28.4533 29.7867 28.4533 29.5467V25.3333C28.4533 25.12 28.2933 24.9067 27.9999 24.9067H23.3333C23.1199 24.9067 22.9333 25.0933 22.9333 25.3333V29.5467C22.9333 29.7867 23.0933 29.9733 23.3333 29.9733ZM29.8399 29.9733H34.5599C34.7733 29.9733 34.9599 29.7867 34.9599 29.5467V25.3333C34.9599 25.12 34.7999 24.9067 34.5599 24.9067H29.8399C29.6266 24.9067 29.4399 25.0933 29.4399 25.3333V29.5467C29.4399 29.7867 29.6266 29.9733 29.8399 29.9733ZM16.7466 24H21.4399C21.6533 24 21.8666 23.76 21.8666 23.52V19.3333C21.8666 19.0933 21.6799 18.9067 21.4399 18.9067H16.7466C16.5066 18.9067 16.3199 19.0667 16.3199 19.3333V23.52C16.3466 23.76 16.5066 24 16.7466 24ZM23.3333 24H27.9999C28.2666 24 28.4533 23.76 28.4533 23.52V19.3333C28.4533 19.0933 28.2933 18.9067 27.9999 18.9067H23.3333C23.1199 18.9067 22.9333 19.0667 22.9333 19.3333V23.52C22.9333 23.76 23.0933 24 23.3333 24ZM29.8399 24H34.5599C34.7733 24 34.9599 23.76 34.9599 23.52V19.3333C34.9599 19.0933 34.7733 18.9067 34.5599 18.9067H29.8399C29.6266 18.9067 29.4399 19.0667 29.4399 19.3333V23.52C29.4399 23.76 29.6266 24 29.8399 24ZM29.8399 17.92H34.5599C34.7733 17.92 34.9599 17.7333 34.9599 17.4933V13.3333C34.9599 13.0667 34.7733 12.88 34.5599 12.88H29.8399C29.6266 12.88 29.4399 13.04 29.4399 13.3333V17.4933C29.4399 17.7067 29.6266 17.92 29.8399 17.92ZM36.3999 29.9733H41.0933C41.3332 29.9733 41.5199 29.7867 41.5199 29.5467V25.3333C41.5199 25.12 41.3332 24.9067 41.0933 24.9067H36.3999C36.1866 24.9067 35.9999 25.0933 35.9999 25.3333V29.5467C35.9999 29.7867 36.1866 29.9733 36.3999 29.9733Z" fill="#94535C"/>
</svg>
