<svg width="65" height="64" viewBox="0 0 65 64" fill="none" xmlns="http://www.w3.org/2000/svg">
<mask id="mask0_9_52" style="mask-type:luminance" maskUnits="userSpaceOnUse" x="0" y="0" width="65" height="64">
<path d="M0.986328 0H64.9863V64H0.986328V0Z" fill="white"/>
</mask>
<g mask="url(#mask0_9_52)">
<path d="M14.533 0H17.4183V2.85067H20.0583V0H22.9436V8.62933H20.0583V5.74133H17.4183V8.62933H14.5356L14.533 0ZM26.7356 2.86133H24.197V0H32.1623V2.86133H29.621V8.62933H26.7356V2.86133ZM33.4263 0H36.4343L38.285 3.032L40.133 0H43.141V8.62933H40.269V4.352L38.285 7.42133H38.2343L36.2476 4.35467V8.62933H33.4263V0ZM44.5756 0H47.4636V5.77867H51.517V8.632H44.5756V0Z" fill="#94535C"/>
<path fill-rule="evenodd" clip-rule="evenodd" d="M14.4423 58.8587L8.98633 12.5787H56.9863L51.5277 58.8533L32.9597 64L14.4423 58.8587ZM25.4743 33.5253L24.957 27.712H46.677L47.1837 22.0373H18.757L20.2877 39.2027H39.9597L39.301 46.5627L32.9703 48.2747H32.965L26.645 46.568L26.2397 42.0427H20.5383L21.333 50.9547L32.9597 54.1813L44.605 50.9547L46.0237 35.0507L46.1623 33.528L25.4743 33.5253Z" fill="#94535C"/>
</g>
</svg>
