<svg width="64" height="64" viewBox="0 0 64 64" fill="none" xmlns="http://www.w3.org/2000/svg">
<path d="M41.7014 12.176L41.8507 12.2613C39.8294 13.328 34.0534 16.768 34.0534 21.1466C34.0534 22.624 34.8987 24.048 35.6907 25.3866C36.3894 26.5653 37.0481 27.6746 37.0481 28.688C37.0481 31.24 34.5601 33.2213 33.1547 34.1333L32.8881 33.9786C33.4187 33.3306 34.0721 32.2453 34.0721 31.088C34.0721 29.4933 33.2534 28.2186 32.4241 26.9253C31.5654 25.5893 30.6961 24.232 30.6961 22.472C30.6961 16.36 39.0027 13.08 41.7014 12.176ZM30.7814 15.408C34.1227 12.4213 37.7734 9.15731 37.7734 4.24798C37.7734 2.02664 36.8641 0.607978 36.4134 0.039978L36.2667 0.122645C36.3734 0.565311 36.5334 1.38131 36.5334 2.44798C36.5334 6.91731 32.7414 10.048 29.0721 13.0826C25.6294 15.9306 22.2934 18.688 22.2934 22.3786C22.2934 27.672 27.5147 30.928 29.7201 32.304L29.8881 32.4106L30.0214 32.3306C29.9023 32.1991 29.7761 32.064 29.6427 31.9253C27.9467 30.12 25.3707 27.3813 25.3707 23.192C25.3707 20.2506 27.9654 17.928 30.7814 15.408ZM29.5787 41.8293C34.2827 41.8293 37.5734 41.1546 39.0347 40.7413L41.2534 42.0213C39.1387 43.096 34.4507 43.9146 29.5681 43.9146C23.8267 43.9146 17.5494 42.6826 17.5307 41.04C17.5174 40.1333 19.5707 39.5306 21.7841 39.1413L21.9174 39.2186C21.9174 39.2186 21.1681 39.488 21.1761 40.1066C21.1867 41.04 24.9627 41.8293 29.5761 41.8293M20.1654 47.6186C20.1654 46.5333 22.4027 46.0187 23.4267 45.8133L23.5601 45.8933C23.3841 46.024 23.2881 46.2026 23.2881 46.3546C23.2881 47.0666 25.7681 47.7173 29.5707 47.7173C32.9787 47.7173 34.8721 47.2986 35.9974 47.0293L38.6374 48.5573C38.5174 48.6426 35.9174 50.2773 29.5654 50.2773C24.9494 50.2773 20.1654 49.1253 20.1654 47.6186ZM42.9094 43.0106C46.0561 41.216 49.2054 39.0933 49.3841 35.6853C49.5014 33.448 47.4454 31.808 45.1974 32.2453L45.3174 31.9466V31.9413C45.8827 31.7706 46.5814 31.632 47.3627 31.632C49.8774 31.632 51.8054 33.1386 52.0507 35.248C52.5467 39.4773 46.5521 42.2293 43.1947 43.176L42.9094 43.0106ZM48.1761 50.9786C48.2027 53.8853 38.3147 55.6133 29.4774 55.6907C21.8481 55.7573 9.54672 54.3173 9.52006 51.4106C9.50406 49.4026 14.8534 48.0133 17.7601 47.6133L18.0667 47.7866C18.0667 47.7866 13.7334 48.792 13.7467 50.6186C13.7627 52.44 22.8801 54.016 29.4641 53.96C39.6641 53.8693 46.5681 52.208 47.3841 49.9546L47.5281 49.872C47.8267 50.0906 48.1681 50.4506 48.1761 50.9786ZM17.1467 56.8986C20.9199 57.5015 24.7364 57.7913 28.5574 57.7653C45.1121 57.6213 49.784 53.552 50.5041 52.6666L50.6294 52.7413C50.4587 55.9626 41.7041 58.64 30.9067 58.7333C25.4107 58.7813 20.4081 58.1466 16.8134 57.0933L17.1467 56.8986ZM24.0854 32.144C21.2081 32.3653 15.0294 33.28 15.0294 34.9066C15.0294 36.1386 20.6934 37.8746 29.5681 37.8746C37.5521 37.8746 42.5921 36.368 43.7681 35.7946L42.0534 34.7946C40.8267 35.128 36.2694 36.144 29.5681 36.144C25.6214 36.144 18.8214 35.416 18.8214 34.304C18.8214 33.3066 23.0641 32.5386 24.2827 32.3173L24.3601 32.304L24.0854 32.144Z" fill="#94535C"/>
</svg>
