<svg width="64" height="64" viewBox="0 0 64 64" fill="none" xmlns="http://www.w3.org/2000/svg">
<path d="M48.6667 10H15.3333C12.3878 10 10 12.3878 10 15.3333V48.6667C10 51.6122 12.3878 54 15.3333 54H48.6667C51.6122 54 54 51.6122 54 48.6667V15.3333C54 12.3878 51.6122 10 48.6667 10Z" stroke="#94535C" stroke-width="1.5" stroke-linecap="round" stroke-linejoin="round"/>
<path d="M30.6667 30V43.3333C30.6667 44.0406 30.3857 44.7189 29.8856 45.219C29.3855 45.7191 28.7072 46 28 46H24M46 30H40.6667C39.9594 30 39.2811 30.281 38.781 30.781C38.281 31.2811 38 31.9594 38 32.6667V35.3333C38 36.0406 38.281 36.7189 38.781 37.219C39.2811 37.719 39.9594 38 40.6667 38H43.3333C44.0406 38 44.7189 38.281 45.219 38.781C45.7191 39.2811 46 39.9594 46 40.6667V43.3333C46 44.0406 45.7191 44.7189 45.219 45.219C44.7189 45.7191 44.0406 46 43.3333 46H38" stroke="#94535C" stroke-width="1.5" stroke-linecap="round" stroke-linejoin="round"/>
</svg>
