<svg width="64" height="64" viewBox="0 0 64 64" fill="none" xmlns="http://www.w3.org/2000/svg">
<path d="M36.6399 11.28C35.039 9.37195 33.5151 7.40059 32.0719 5.37066C32.0638 5.3591 32.053 5.34967 32.0405 5.34316C32.028 5.33665 32.0141 5.33325 31.9999 5.33325C31.9858 5.33325 31.9719 5.33665 31.9594 5.34316C31.9468 5.34967 31.936 5.3591 31.9279 5.37066C30.4848 7.4015 28.9609 9.37375 27.3599 11.2827C8.12793 35.7813 30.3946 52.3093 30.3946 52.3093L30.5733 52.4347C30.7439 54.992 31.1626 58.6667 31.1626 58.6667H32.8373C32.8373 58.6667 33.2559 55.008 33.4239 52.4533L33.6079 52.3093C33.6079 52.3093 55.8719 35.7813 36.6426 11.2827M31.9999 51.952C31.9999 51.952 31.0026 51.0987 30.7333 50.672L30.7306 50.6293L31.9386 23.9573C31.9416 23.9429 31.9494 23.93 31.9609 23.9207C31.9723 23.9114 31.9865 23.9063 32.0013 23.9063C32.016 23.9063 32.0302 23.9114 32.0417 23.9207C32.0531 23.93 32.0609 23.9429 32.0639 23.9573L33.2693 50.6293V50.6747C32.9999 51.1013 31.9999 51.952 31.9999 51.952Z" fill="#94535C"/>
</svg>
