<svg width="64" height="64" viewBox="0 0 64 64" fill="none" xmlns="http://www.w3.org/2000/svg">
<path fill-rule="evenodd" clip-rule="evenodd" d="M54.4586 46.232C51.5572 46.152 49.3065 46.448 47.4185 47.2427C46.8772 47.4613 46.0052 47.4613 45.9332 48.144C46.2266 48.432 46.2586 48.9013 46.5146 49.2987C46.9492 50.0187 47.7119 50.992 48.3999 51.496L50.7199 53.1547C52.1359 54.0213 53.7332 54.5253 55.1119 55.3893C55.9092 55.896 56.7066 56.544 57.5066 57.0853C57.9119 57.3733 58.1572 57.8427 58.6665 58.024V57.9147C58.4132 57.5893 58.3386 57.1227 58.0879 56.76L56.9972 55.7147C55.9344 54.3142 54.6616 53.0864 53.2239 52.0747C52.0639 51.28 49.5252 50.2 49.0532 48.8667L48.9812 48.7867C49.7785 48.7067 50.7225 48.424 51.4852 48.208C52.7199 47.8853 53.8426 47.9547 55.1119 47.632L56.8532 47.1253V46.8053C56.1999 46.1547 55.7279 45.288 55.0399 44.6773C53.1622 43.0462 51.1607 41.5636 49.0532 40.2427C47.9279 39.5227 46.4772 39.0507 45.2799 38.44C44.8425 38.224 44.1199 38.1147 43.8666 37.7547C43.2106 36.9627 42.8506 35.9147 42.3786 34.9787L39.4025 28.704C38.7492 27.2987 38.3492 25.8933 37.5519 24.5973C33.8186 18.464 29.7519 14.752 23.5119 11.1093C22.1705 10.352 20.5759 10.0267 18.8772 9.632L16.1572 9.48534C15.5759 9.23467 14.9945 8.54934 14.4879 8.22401C12.4212 6.92534 7.08788 4.11467 5.56255 7.82134C4.58122 10.1627 7.01322 12.4693 7.83988 13.6613C8.45588 14.488 9.25322 15.4267 9.69055 16.3653C9.93322 16.9787 10.0159 17.6267 10.2692 18.2747C10.8505 19.8613 11.3945 21.6293 12.1572 23.1067C12.5625 23.864 12.9892 24.6587 13.4985 25.344C13.7892 25.7467 14.2985 25.92 14.4052 26.5707C13.8985 27.2907 13.8612 28.3707 13.5705 29.2747C12.2639 33.3493 12.7705 38.3947 14.6239 41.3947C15.2052 42.296 16.5732 44.28 18.4319 43.5227C20.0665 42.872 19.7012 40.8187 20.1732 39.016C20.2825 38.584 20.2105 38.296 20.4265 38.0053V38.0853L21.9146 41.08C23.0399 42.8453 24.9999 44.6853 26.6319 45.912C27.5012 46.56 28.1892 47.6773 29.2772 48.072V47.9653H29.2079C28.9892 47.6427 28.6612 47.496 28.3706 47.2453C27.6842 46.5761 27.0536 45.8519 26.4852 45.08C24.9517 43.0099 23.5932 40.8156 22.4239 38.52C21.8426 37.4 21.3332 36.176 20.8639 35.0587C20.6425 34.6267 20.6425 33.976 20.2825 33.76C19.7359 34.552 18.9412 35.24 18.5385 36.2133C17.8505 37.76 17.7785 39.672 17.5252 41.656C17.3785 41.6933 17.4452 41.656 17.3785 41.736C16.2185 41.4507 15.8185 40.2587 15.3839 39.2507C14.2959 36.6907 14.1145 32.5813 15.0559 29.624C15.3119 28.8667 16.3999 26.4853 15.9652 25.7653C15.7465 25.08 15.0212 24.6853 14.6212 24.144C14.1169 23.4161 13.6796 22.6441 13.3145 21.8373C12.4479 19.816 12.0105 17.5813 11.0665 15.5627C10.6319 14.624 9.86922 13.6507 9.25322 12.7867C8.56255 11.8133 7.80255 11.128 7.25855 9.97334C7.07722 9.57067 6.82388 8.92801 7.11455 8.49601C7.18388 8.20801 7.33055 8.09067 7.62122 8.02667C8.09055 7.62401 9.43455 8.13334 9.90655 8.34934C11.2479 8.89067 12.3732 9.39467 13.4985 10.152C14.0052 10.512 14.5492 11.1973 15.2052 11.3787H15.9652C17.1279 11.632 18.4319 11.4587 19.5199 11.784C21.4399 12.3973 23.1839 13.296 24.7465 14.272C29.5461 17.3054 33.4522 21.5612 36.0639 26.6027C36.4986 27.432 36.6772 28.1893 37.0772 29.056C37.8426 30.8213 38.7839 32.624 39.5466 34.3547C40.3092 36.0507 41.0345 37.7813 42.1226 39.1867C42.6665 39.944 44.8426 40.3413 45.8212 40.7387C46.5466 41.0587 47.6719 41.352 48.3279 41.7467C49.5572 42.504 50.7919 43.3707 51.9519 44.2C52.5306 44.632 54.3465 45.5333 54.4559 46.2533L54.4586 46.232ZM17.4612 14.9013C16.9604 14.8981 16.4612 14.9591 15.9759 15.0827V15.1627H16.0479C16.3385 15.7387 16.8479 16.136 17.2079 16.6427L18.0425 18.3733L18.1145 18.2933C18.6212 17.9307 18.8772 17.3547 18.8772 16.4907C18.6585 16.2373 18.6239 15.984 18.4425 15.7333C18.2239 15.3733 17.7519 15.192 17.4612 14.904" fill="#94535C"/>
</svg>
