<svg width="64" height="64" viewBox="0 0 64 64" fill="none" xmlns="http://www.w3.org/2000/svg">
<path d="M49 0H15C6.71573 0 0 6.71573 0 15V49C0 57.2843 6.71573 64 15 64H49C57.2843 64 64 57.2843 64 49V15C64 6.71573 57.2843 0 49 0Z" fill="#94535C"/>
<path d="M12.2895 25.0615H19.3915C21.476 25.0792 22.9865 25.6798 23.923 26.8635C24.8593 28.047 25.1685 29.6635 24.8505 31.713C24.7268 32.6493 24.453 33.568 24.029 34.469C23.6227 35.37 23.0573 36.1827 22.333 36.907C21.4497 37.8255 20.5045 38.4085 19.4975 38.656C18.4903 38.9033 17.448 39.027 16.3705 39.027H13.1905L12.1835 44.062H8.5L12.2895 25.0615ZM15.39 28.0825L13.8 36.0325C13.906 36.0502 14.012 36.059 14.118 36.059H14.489C16.1852 36.0767 17.5985 35.9088 18.729 35.5555C19.8597 35.1845 20.6193 33.8948 21.008 31.6865C21.326 29.8315 21.008 28.7627 20.054 28.48C19.1177 28.1975 17.9428 28.065 16.5295 28.0825C16.3177 28.1002 16.1145 28.109 15.92 28.109H15.3635L15.39 28.0825ZM29.0465 20H32.7035L31.67 25.0615H34.956C36.7578 25.097 38.1005 25.468 38.984 26.1745C39.885 26.8812 40.15 28.2238 39.779 30.2025L38.0035 39.027H34.2935L35.9895 30.6C36.166 29.7167 36.113 29.0895 35.8305 28.7185C35.548 28.3475 34.9385 28.162 34.002 28.162L31.0605 28.1355L28.8875 39.027H25.2305L29.0465 20ZM43.706 25.0615H50.808C52.8925 25.0792 54.403 25.6798 55.3395 26.8635C56.2758 28.047 56.585 29.6635 56.267 31.713C56.1433 32.6493 55.8695 33.568 55.4455 34.469C55.0392 35.37 54.4738 36.1827 53.7495 36.907C52.8662 37.8255 51.921 38.4085 50.914 38.656C49.9068 38.9033 48.8645 39.027 47.787 39.027H44.607L43.6 44.062H39.9165L43.706 25.0615ZM46.8065 28.0825L45.2165 36.0325C45.3225 36.0502 45.4285 36.059 45.5345 36.059H45.9055C47.6017 36.0767 49.015 35.9088 50.1455 35.5555C51.2762 35.1845 52.0358 33.8948 52.4245 31.6865C52.7425 29.8315 52.4245 28.7627 51.4705 28.48C50.5342 28.1975 49.3593 28.065 47.946 28.0825C47.734 28.1002 47.5308 28.109 47.3365 28.109H46.78L46.8065 28.0825Z" fill="#561C24"/>
</svg>
