<svg width="64" height="64" viewBox="0 0 64 64" fill="none" xmlns="http://www.w3.org/2000/svg">
<path d="M53.1039 15.7013C44.1066 4.04801 27.3599 1.89335 15.7013 10.896C4.04795 19.8933 1.89328 36.64 10.8959 48.2987C19.8959 59.952 36.6426 62.1067 48.2986 53.104L48.3039 53.0987C59.9546 44.096 62.1039 27.3547 53.1039 15.7013ZM46.2799 22.3547L44.2 20.3067L43.7493 19.8587L43.8746 19.7333L47.0319 16.752C47.5973 17.4373 47.9066 18.2987 47.9066 19.192C47.9039 20.232 47.4879 21.232 46.7493 21.968C46.6017 22.1102 46.4453 22.2391 46.2799 22.3547ZM17.8613 44.6347L18.2319 44.9813L20.1653 46.9147L15.8613 46.6347L17.8613 44.6347ZM43.9733 15.28C44.84 15.2853 45.6826 15.5733 46.3733 16.1013L42.9066 19.5893C42.8552 19.6307 42.8156 19.685 42.792 19.7467L42.7893 19.76L42.784 19.776C42.7645 19.8427 42.7656 19.9137 42.787 19.9798C42.8083 20.0459 42.8491 20.104 42.9039 20.1467L45.528 22.768C44.8103 23.08 44.0153 23.1686 43.2466 23.0221C42.4779 22.8756 41.7712 22.5008 41.2186 21.9467C40.6763 21.3992 40.3074 20.704 40.158 19.9479C40.0086 19.1919 40.0853 18.4086 40.3786 17.696C40.6712 16.9826 41.169 16.3721 41.809 15.942C42.4489 15.5119 43.2022 15.2815 43.9733 15.28ZM41.5493 23.9893C41.5444 24.1589 41.5045 24.3255 41.432 24.4788C41.3595 24.6321 41.2559 24.7687 41.1279 24.88L30.7413 33.9173L30.7066 33.9467L30.328 33.568L30.1626 33.4027L30.0826 33.3227L29.8506 33.0907L29.7626 33.0027L29.584 32.824L39.416 23.08C39.6164 22.8754 39.8821 22.7474 40.167 22.7182C40.452 22.6889 40.7381 22.7604 40.9759 22.92C41.0467 22.9669 41.1127 23.0205 41.1733 23.08L41.2719 23.1813C41.3573 23.3093 41.4311 23.4427 41.4933 23.5813C41.5342 23.7147 41.5528 23.8507 41.5493 23.9893ZM29.5546 33.9627L29.5733 34.0133L29.6639 34.1013L30.0533 34.4827L29.9093 34.5013L27.7519 34.7653L28.0186 34.4987L29.0613 33.4587L29.5546 33.9627ZM40.0346 21.9653C39.59 22.024 39.1773 22.2284 38.8613 22.5467L29.0613 32.3013L27.1413 30.3813C32.2213 25.32 35.3279 22.68 37.2613 21.8133C37.6823 21.548 38.1753 21.4202 38.6722 21.4474C39.169 21.4746 39.6451 21.6556 40.0346 21.9653ZM26.5733 30.9467L26.6133 30.9867L28.1999 32.5733L24.0613 33.4587L26.5733 30.9467ZM21.1519 43.9013C21.0223 43.9621 20.9181 44.0663 20.8572 44.1958C20.7963 44.3254 20.7827 44.4721 20.8186 44.6107L21.2613 46.544C21.278 46.5668 21.287 46.5944 21.287 46.6227C21.287 46.651 21.278 46.6785 21.2613 46.7013C21.237 46.7227 21.2057 46.7345 21.1733 46.7345C21.1409 46.7345 21.1096 46.7227 21.0853 46.7013L18.4613 44.056L26.5413 35.856L30.7253 35.208L32.2613 36.744C28.8612 39.5703 25.1309 41.9736 21.1519 43.9013ZM32.9946 36.168L31.3733 34.5467L41.584 25.592C40.8586 28.472 37.0079 32.376 32.9946 36.168ZM47.0613 18.7013C47.0194 18.6309 46.953 18.5783 46.8748 18.5537C46.7965 18.5291 46.712 18.5342 46.6373 18.568C46.6008 18.5869 46.5684 18.6127 46.542 18.6441C46.5155 18.6755 46.4955 18.7119 46.4832 18.751C46.4708 18.7901 46.4662 18.8313 46.4698 18.8722C46.4734 18.9131 46.485 18.9529 46.5039 18.9893C46.5805 19.1502 46.6109 19.3291 46.5916 19.5062C46.5723 19.6833 46.5041 19.8515 46.3946 19.992C46.3662 20.0189 46.3441 20.0517 46.3298 20.0881C46.3155 20.1245 46.3094 20.1636 46.312 20.2027C46.312 20.2845 46.3386 20.3547 46.3919 20.4133C46.4497 20.4339 46.5128 20.4339 46.5706 20.4133C46.6225 20.4266 46.677 20.4254 46.7282 20.4099C46.7795 20.3944 46.8255 20.3651 46.8613 20.3253C47.046 20.1019 47.163 19.8303 47.1985 19.5426C47.2339 19.2548 47.1863 18.9629 47.0613 18.7013Z" fill="#94535C"/>
</svg>
