<svg width="64" height="64" viewBox="0 0 64 64" fill="none" xmlns="http://www.w3.org/2000/svg">
<path d="M44.8133 2.66669C42.4662 2.68865 40.1323 3.02041 37.872 3.65335L37.712 3.70135C36.2888 3.45733 34.8491 3.32271 33.4053 3.29869C30.4373 3.24802 27.8853 3.94669 25.832 5.11202C23.8053 4.42935 19.6027 3.25335 15.1733 3.48802C12.088 3.65069 8.72266 4.56002 6.22933 7.11469C3.74133 9.66935 2.42666 13.6214 2.704 19C2.77866 20.4854 3.21333 22.904 3.93866 26.04C4.65866 29.1734 5.67733 32.84 6.944 36.1867C8.21066 39.5334 9.6 42.544 11.7707 44.5867C12.8533 45.6107 14.344 46.472 16.1013 46.4C17.336 46.352 18.4533 45.8267 19.416 45.0507C19.8853 45.6507 20.3867 45.912 20.8427 46.1547C21.416 46.4587 21.976 46.6667 22.5547 46.8054C24.1571 47.2163 25.8261 47.2988 27.4613 47.048C28.1733 46.9334 28.9227 46.7094 29.6693 46.3894C29.696 47.1947 29.728 47.984 29.7627 48.784C29.864 51.3174 29.9307 53.656 30.7147 55.7067C30.84 56.0427 31.184 57.768 32.5467 59.2907C33.9067 60.816 36.5733 61.7654 39.608 61.136C41.7493 60.6907 44.4747 59.888 46.2827 57.392C48.0693 54.9227 48.8773 51.3814 49.0373 45.6347C49.0773 45.3254 49.1253 45.0614 49.176 44.8134L49.6027 44.8507H49.6507C51.936 44.952 54.416 44.6374 56.488 43.704C58.3227 42.8774 59.7093 42.0454 60.72 40.5654C60.9733 40.2 61.2507 39.7574 61.3253 38.992C61.4 38.232 60.952 37.0374 60.2027 36.488C58.7013 35.384 57.76 35.8027 56.7493 36.008C55.7538 36.2214 54.744 36.3396 53.72 36.3627C56.6347 31.6054 58.7227 26.5494 59.9147 22.0747C60.6187 19.4347 61.016 17 61.048 14.872C61.08 12.744 60.9013 10.8587 59.5867 9.22669C55.4773 4.13335 49.6987 2.72535 45.2293 2.67735C45.0907 2.6738 44.952 2.67291 44.8133 2.67469V2.66669ZM44.696 4.23202C48.9227 4.19202 54.3253 5.34402 58.2027 10.152C59.0747 11.232 59.3333 12.8107 59.304 14.7574C59.272 16.7014 58.9013 19.0267 58.224 21.576C56.9093 26.5147 54.424 32.2694 50.9227 37.4374C51.047 37.5235 51.1813 37.5943 51.3227 37.648C52.0533 37.9414 53.7173 38.192 57.0427 37.5307C57.8773 37.3574 58.4907 37.2427 59.1253 37.712C59.2772 37.8381 59.3979 37.9975 59.4779 38.1779C59.5579 38.3584 59.5951 38.5548 59.5867 38.752C59.5514 39.0499 59.4383 39.3332 59.2587 39.5734C58.6187 40.5094 57.3493 41.3974 55.7227 42.128C54.2853 42.7787 52.2213 43.1174 50.392 43.1387C49.4747 43.1467 48.6293 43.0774 47.912 42.8614L47.864 42.8454C47.5867 45.4347 46.9493 50.552 46.536 52.8854C46.2027 54.768 45.6213 56.264 44.5093 57.384C43.4 58.504 41.832 59.1787 39.72 59.6187C37.104 60.1627 35.1973 59.576 33.968 58.5707C32.7413 57.5707 32.1787 56.24 31.84 55.424C31.608 54.864 31.488 54.136 31.3707 53.1627C31.2416 51.9974 31.1554 50.8277 31.112 49.656C31.0355 47.6019 31.0106 45.5461 31.0373 43.4907C29.944 44.4587 28.584 45.104 27.1253 45.3467C25.392 45.632 23.84 45.352 22.9147 45.128C22.461 45.0162 22.0224 44.8506 21.608 44.6347C21.176 44.4134 20.768 44.1627 20.496 43.6667C20.3357 43.3836 20.2845 43.0516 20.352 42.7334C20.4393 42.41 20.6328 42.1255 20.9013 41.9254C21.4027 41.5307 22.0613 41.312 23.056 41.1094C24.8693 40.7494 25.5013 40.5014 25.8853 40.2054C26.2133 39.952 26.584 39.44 27.24 38.6854L27.232 38.5867C26.0629 38.5524 24.9168 38.2533 23.88 37.712C23.504 38.096 21.5733 40.0774 19.2187 42.824C18.2293 43.9734 17.136 44.632 15.9813 44.68C14.8267 44.728 13.784 44.1627 12.8987 43.3307C11.1253 41.6614 9.712 38.7894 8.48 35.544C7.25333 32.296 6.25066 28.68 5.54133 25.6C4.82666 22.52 4.40533 20.0374 4.34666 18.84C4.08 13.7494 5.30666 10.32 7.41333 8.15735C9.52 5.99469 12.4053 5.17335 15.2213 5.01869C20.272 4.73602 25.0693 6.44535 26.04 6.81335C27.9093 5.58135 30.3173 4.81335 33.328 4.86135C34.755 4.8812 36.1753 5.06008 37.5627 5.39469L37.6133 5.37335C38.2249 5.16535 38.8453 4.99113 39.4747 4.85069C41.1879 4.46398 42.9371 4.2584 44.6933 4.23735L44.696 4.23202ZM45.0773 5.86935H44.712C43.2692 5.88879 41.8316 6.04595 40.4187 6.33869C43.2233 7.56023 45.6874 9.44772 47.5973 11.8374C48.7543 13.267 49.714 14.8455 50.4507 16.5307C50.728 17.176 50.9147 17.7227 51.0187 18.144C51.072 18.3574 51.1093 18.536 51.12 18.7227C51.1298 18.8408 51.1199 18.9598 51.0907 19.0747L51.0747 19.1067C51.152 21.248 50.6053 22.6987 50.5387 24.7414C50.488 26.224 50.8773 27.9654 50.9733 29.8614C51.064 31.648 50.8427 33.608 49.648 35.5334C49.7475 35.6507 49.8435 35.768 49.936 35.8854C53.096 31.0587 55.376 25.7147 56.5893 21.1627C57.2373 18.7094 57.584 16.488 57.6133 14.728C57.64 12.968 57.3013 11.6907 56.8693 11.16C53.488 6.96535 48.9147 5.89869 45.0773 5.86935ZM33.0107 6.49335C30.032 6.49869 27.8933 7.37335 26.2747 8.68002C24.6027 10.032 23.4827 11.88 22.7467 13.776C22.0343 15.6708 21.5987 17.6583 21.4533 19.6774L21.488 19.6587C22.3867 19.168 23.568 18.68 24.832 18.3974C26.0987 18.1147 27.4613 18.0267 28.696 18.4907C29.9307 18.9547 30.952 20.048 31.3227 21.7067C33.096 29.6694 30.7707 32.6294 29.912 34.8614C29.5899 35.6714 29.3121 36.4984 29.08 37.3387C29.1867 37.3085 29.2942 37.2871 29.4027 37.2747C29.8711 37.2493 30.3385 37.341 30.7627 37.5414C31.6267 37.888 32.2187 38.6134 32.5387 39.4454C32.6222 39.6658 32.6818 39.8969 32.7173 40.1387C32.7529 40.24 32.7698 40.344 32.768 40.4507C32.6722 43.4955 32.6828 46.5427 32.8 49.5867C32.8587 50.904 32.944 52.0614 33.0533 52.976C33.16 53.888 33.3147 54.5814 33.4133 54.816C33.7333 55.6 34.2053 56.624 35.0587 57.32C35.912 58.016 37.1307 58.4774 39.3627 58.0134C41.2987 57.6107 42.4933 57.0534 43.2933 56.2454C44.088 55.4427 44.5653 54.3254 44.8693 52.6107C45.3253 50.0427 46.2427 42.6 46.352 41.1974C46.304 40.144 46.464 39.3307 46.8107 38.712C47.1707 38.0774 47.7253 37.688 48.2027 37.4774C48.4427 37.3707 48.6667 37.3014 48.8507 37.2507C48.6546 36.9795 48.45 36.7144 48.2373 36.456C47.5477 35.6493 46.9824 34.7443 46.56 33.7707C46.3565 33.3702 46.1404 32.9762 45.912 32.5894C45.5787 32.0027 45.1547 31.2694 44.712 30.4454C43.824 28.7947 42.8587 26.7947 42.3573 24.8454C41.8587 22.9014 41.784 20.888 43.064 19.4667C44.2 18.2054 46.1893 17.6827 49.1787 17.976C49.0907 17.72 49.0373 17.5067 48.888 17.1654C48.2134 15.616 47.3316 14.1654 46.2667 12.8534C43.7333 9.71202 39.6347 6.59735 33.2987 6.49602H33.0107V6.49335ZM16.2747 6.61869C15.9547 6.61869 15.6347 6.62758 15.3147 6.64535C12.7707 6.78669 10.3653 7.50402 8.64533 9.27469C6.92 11.0427 5.78666 13.944 6.032 18.7494C6.08266 19.656 6.49066 22.2054 7.18933 25.2294C7.888 28.2587 8.88 31.8187 10.0693 34.9627C11.2587 38.1094 12.704 40.848 14.0747 42.144C14.7653 42.792 15.3653 43.0534 15.9093 43.032C16.456 43.0054 17.112 42.7014 17.9173 41.7654C19.384 40.0491 20.9047 38.3798 22.4773 36.76C21.3662 35.8283 20.5109 34.6288 19.992 33.2747C19.4774 31.9335 19.3211 30.4813 19.5387 29.0614C19.7973 27.2534 19.832 25.5627 19.8027 24.2294C19.7707 22.928 19.6747 22.064 19.6747 21.5227V21.448C19.6719 18.6297 20.1769 15.834 21.1653 13.1947C21.8693 11.376 22.92 9.52802 24.496 8.03202C22.9493 7.53869 20.2027 6.78669 17.2293 6.64535C16.9096 6.62823 16.5895 6.61934 16.2693 6.61869H16.2747ZM47.512 19.5307C45.8027 19.552 44.8427 19.9814 44.3387 20.5414C43.624 21.336 43.5573 22.728 44 24.4454C44.4427 26.1627 45.352 28.0854 46.2107 29.68C46.6373 30.48 47.0533 31.2 47.3893 31.7814C47.728 32.368 47.976 32.784 48.1253 33.1414C48.2676 33.4631 48.4169 33.7574 48.5733 34.024C49.2347 32.6667 49.3547 31.336 49.2853 29.9467C49.1973 28.2294 48.7867 26.472 48.848 24.6934C48.9147 22.6134 49.3387 21.256 49.376 19.648C48.7575 19.5726 48.1351 19.5335 47.512 19.5307ZM26.7653 19.8107C26.2429 19.8146 25.7226 19.8755 25.2133 19.992C24.2009 20.2307 23.2238 20.6 22.3067 21.0907C21.9991 21.2507 21.7058 21.4365 21.4267 21.648L21.3733 21.696C21.3893 22.0534 21.4613 22.92 21.4933 24.192C21.52 25.5867 21.488 27.3654 21.2107 29.2854C20.608 33.4667 23.7333 36.928 27.408 36.9334C27.6213 36.0747 27.976 35.2054 28.328 34.288C29.352 31.6134 31.3653 29.664 29.6693 22.0507C29.392 20.8054 28.8427 20.3014 28.0853 20.016C27.6613 19.8688 27.2141 19.7992 26.7653 19.8107ZM46.712 20.3094H46.84C47.0071 20.3147 47.1582 20.3325 47.2933 20.3627C47.416 20.3873 47.5333 20.4334 47.64 20.4987C47.6886 20.5273 47.7305 20.5658 47.7632 20.6118C47.7958 20.6577 47.8183 20.7101 47.8293 20.7654V20.7867C47.8363 20.9039 47.8045 21.0201 47.7387 21.1174C47.6642 21.2518 47.5708 21.3749 47.4613 21.4827C47.2029 21.7569 46.8621 21.9395 46.4907 22.0027C46.1265 22.0458 45.759 21.9558 45.456 21.7494C45.334 21.6688 45.2237 21.5719 45.128 21.4614C45.0471 21.375 44.9917 21.2679 44.968 21.152C44.9622 21.095 44.9687 21.0374 44.9871 20.9831C45.0055 20.9288 45.0354 20.8791 45.0747 20.8374C45.1599 20.7479 45.2601 20.6739 45.3707 20.6187C45.793 20.4248 46.2501 20.3178 46.7147 20.304L46.712 20.3094ZM27.0107 20.72C27.144 20.72 27.2836 20.7307 27.4293 20.752C27.8133 20.8054 28.1573 20.904 28.4187 21.0507C28.5467 21.1165 28.6587 21.2027 28.7547 21.3094C28.8044 21.368 28.8418 21.4329 28.8667 21.504C28.8916 21.5751 28.8996 21.6489 28.8907 21.7254C28.8664 21.8668 28.8005 21.9977 28.7013 22.1014C28.5982 22.2256 28.4768 22.3335 28.3413 22.4214C28.0102 22.6469 27.6084 22.7445 27.2107 22.696C26.8071 22.6309 26.4361 22.4351 26.1547 22.1387C26.0376 22.0193 25.9372 21.8848 25.856 21.7387C25.7729 21.6108 25.7362 21.4583 25.752 21.3067C25.7893 21.04 26.016 20.9067 26.232 20.8267C26.4817 20.7475 26.7438 20.7149 27.0053 20.7307L27.0107 20.72ZM49.8373 38.672H49.8293C49.4587 38.8054 49.1547 38.8587 48.896 38.9654C48.6383 39.0609 48.4248 39.2479 48.296 39.4907C48.136 39.7707 48.0027 40.2694 48.0427 41.1174C48.1576 41.1932 48.2835 41.2507 48.416 41.288C48.8453 41.416 49.568 41.5014 50.376 41.488C51.9813 41.4694 53.96 41.1067 55.0107 40.632C55.872 40.2427 56.672 39.736 57.3867 39.128C53.8747 39.832 51.8933 39.6454 50.6747 39.1574C50.3741 39.0347 50.0922 38.8731 49.8373 38.672ZM29.6027 38.8987H29.5493C29.416 38.9094 29.2213 38.952 28.848 39.3574C27.968 40.312 27.664 40.9094 26.9387 41.4694C26.2187 42.0294 25.2773 42.3254 23.4 42.6987C22.8053 42.816 22.4667 42.9467 22.2373 43.0507C22.312 43.1094 22.304 43.1254 22.4133 43.1814C22.688 43.328 23.0427 43.456 23.3253 43.528C24.1333 43.7227 25.4587 43.952 26.8427 43.7227C28.2267 43.4934 29.664 42.8507 30.8907 41.1814C31.104 40.8934 31.1253 40.4667 30.952 40.008C30.7733 39.5547 30.3893 39.16 30.1173 39.048C29.9551 38.9715 29.7811 38.9228 29.6027 38.904V38.8987Z" fill="#94535C"/>
</svg>
