<svg width="64" height="64" viewBox="0 0 64 64" fill="none" xmlns="http://www.w3.org/2000/svg">
<path d="M57.9147 32C57.9147 28.1893 54.344 24.8507 48.6694 22.6667C48.7467 22.1867 48.8747 21.68 48.936 21.2133C49.5147 15.7253 48.208 11.7653 45.2587 10.0613C41.9654 8.15733 37.304 9.56533 32.5894 13.3653C27.8667 9.57067 23.2 8.16267 19.9147 10.0613C16.9627 11.7653 15.648 15.7253 16.2374 21.2133C16.2854 21.68 16.416 22.1867 16.4907 22.6667C10.8187 24.8507 7.24805 28.1893 7.24805 32C7.24805 35.8107 10.8187 39.1493 16.4907 41.3333C16.416 41.8133 16.2854 42.32 16.2374 42.7867C15.656 48.2747 16.9627 52.2347 19.9147 53.9387C20.9174 54.5067 22.056 54.7973 23.208 54.7813C26.7034 54.4601 29.996 52.9983 32.5787 50.6213C35.1621 52.9988 38.4558 54.4606 41.952 54.7813C43.106 54.7977 44.2436 54.5069 45.248 53.9387C48.1974 52.2347 49.5147 48.2747 48.9254 42.7867C48.8747 42.32 48.7467 41.8133 48.6587 41.3333C54.344 39.1493 57.9147 35.8107 57.9147 32ZM41.888 11.872C42.5958 11.8559 43.2952 12.028 43.9147 12.3707C45.8694 13.5013 46.728 16.6187 46.272 20.936C46.24 21.2187 46.1574 21.528 46.1174 21.816C43.872 21.1671 41.5876 20.7022 39.264 20.4213C37.8584 18.5434 36.3002 16.7845 34.6054 15.1627C36.6297 13.3321 39.1764 12.1814 41.888 11.872ZM20.776 35.288C21.2347 36.1947 21.6694 37.1013 22.1867 38C22.704 38.8987 23.24 39.7493 23.7867 40.584C22.3398 40.3343 20.9089 39.9995 19.5014 39.5813C19.84 38.126 20.2656 36.6923 20.776 35.288ZM19.4987 24.4187C20.9062 24.0005 22.3371 23.6657 23.784 23.416C23.2365 24.248 22.7032 25.1093 22.184 26C21.664 26.8933 21.232 27.8053 20.7734 28.712C20.2649 27.3076 19.84 25.8764 19.4987 24.4187ZM22.1334 32C22.8418 30.4047 23.6322 28.8471 24.5014 27.3333C25.3832 25.8187 26.3396 24.352 27.3707 22.9333C29.0214 22.7707 30.7574 22.6667 32.5814 22.6667C34.4036 22.6684 36.1387 22.7573 37.7867 22.9333C38.8179 24.3553 39.7782 25.8273 40.664 27.344C41.5316 28.8569 42.32 30.4089 43.0294 32C41.6112 35.1965 39.8659 38.2376 37.8214 41.0747C34.3364 41.4333 30.8237 41.4333 27.3387 41.0747C26.3194 39.6528 25.3707 38.1817 24.496 36.6667C23.6287 35.1528 22.8401 33.5952 22.1334 32ZM42.976 38C43.5094 37.1013 43.9307 36.1947 44.3894 35.288C44.8978 36.6942 45.3227 38.1262 45.664 39.584C44.2551 39.9966 42.8245 40.3313 41.3787 40.5867C41.9174 39.7493 42.456 38.8933 42.9707 38H42.976ZM44.3894 28.712C43.9307 27.8053 43.496 26.8987 42.976 26C42.4674 25.1227 41.9339 24.2602 41.376 23.4133C42.8232 23.6658 44.2507 24 45.6587 24.416C45.3202 25.8722 44.8946 27.3068 44.384 28.712H44.3894ZM32.5787 16.9067C33.6454 17.9076 34.6498 18.968 35.592 20.088C34.6054 20.0329 33.6018 20.0036 32.5814 20C31.0507 19.9947 30.5547 20.0347 29.5654 20.088C30.5076 18.968 31.512 17.9076 32.5787 16.9067ZM21.248 12.3733C21.8676 12.0307 22.5669 11.8586 23.2747 11.8747C25.9842 12.1844 28.5288 13.3341 30.552 15.1627C28.8572 16.7845 27.2991 18.5434 25.8934 20.4213C23.5716 20.7022 21.288 21.168 19.0427 21.8187C19.0027 21.528 18.9174 21.2187 18.888 20.936C18.432 16.6187 19.2907 13.504 21.248 12.3733ZM9.91471 32C9.91471 29.6 12.512 27.12 16.968 25.3173C17.5494 27.6027 18.312 29.8373 19.2507 32C18.312 34.1627 17.5494 36.4 16.968 38.6827C12.512 36.88 9.91471 34.4 9.91471 32ZM21.248 51.6293C19.2907 50.5013 18.432 47.3813 18.888 43.064C18.9174 42.7813 19.0027 42.472 19.0427 42.1813C21.2863 42.8302 23.5654 43.296 25.88 43.5787C27.2968 45.4639 28.8637 47.2314 30.5654 48.864C26.776 51.8213 23.328 52.832 21.248 51.6293ZM29.5414 43.9093C30.5369 43.968 31.5503 43.9982 32.5814 44C33.6125 43.9982 34.6249 43.968 35.6187 43.9093C34.6706 45.0487 33.6555 46.1306 32.5787 47.1493C31.5029 46.1306 30.4886 45.0486 29.5414 43.9093ZM43.9147 51.6293C41.8294 52.832 38.3814 51.8213 34.5814 48.8613C36.2864 47.2329 37.8536 45.466 39.2667 43.5787C41.5802 43.2968 43.8675 42.8304 46.1067 42.184C46.1467 42.472 46.2294 42.7813 46.2614 43.064C46.728 47.3813 45.8667 50.5013 43.9147 51.6293ZM48.1814 38.6853C47.6033 36.3999 46.8435 34.1644 45.9094 32C46.8498 29.8311 47.6107 27.6027 48.192 25.3147C52.648 27.12 55.248 29.6 55.248 32C55.248 34.4 52.648 36.88 48.192 38.6853H48.1814Z" fill="#94535C"/>
<path d="M32.5735 36.728C33.5184 36.7311 34.443 36.4541 35.2305 35.9319C36.018 35.4097 36.633 34.6657 36.9977 33.794C37.3625 32.9224 37.4606 31.9622 37.2798 31.0347C37.0989 30.1073 36.6472 29.2543 35.9816 28.5835C35.3161 27.9128 34.4667 27.4544 33.5407 27.2663C32.6147 27.0782 31.6537 27.1689 30.7792 27.5268C29.9048 27.8848 29.156 28.4939 28.6277 29.2773C28.0993 30.0607 27.8151 30.9831 27.8108 31.928V31.944C27.8084 32.5711 27.9297 33.1926 28.1679 33.7727C28.4062 34.3529 28.7565 34.8803 29.199 35.3247C29.6415 35.7692 30.1673 36.1219 30.7464 36.3627C31.3254 36.6035 31.9464 36.7276 32.5735 36.728Z" fill="#94535C"/>
</svg>
